PathFileType	4	(X/Y/Z)	C:\Users\s5001683\Documents\PhD\FASHiON\BaselineData\3. CleanedGaitData\ElaboratedData\FAS-906\Session 1\staticElaborations\StaticCalibration\Static\\StaticCalibration.trc
DataRate	CameraRate	NumFrames	NumMarkers	Units	OrigDataRate	DataStartFrame
120	120	4	90	mm	120	2
Frame#	Time	RFHD			LFHD			RBHD			LBHD			C7			T10			CLAV			STRN			RASI			LASI			RPSI			LPSI			RTH1			RTH2			RTH3			RTH4			RTH5			RTH6			RMFC			RLFC			RTB1			RTB2			RTB3			RTB4			RTB5			RTB6			RMMAL			RLMAL			RCAL			RMT1			RMT23			RMT5			LMT1			LMT23			LMT5			LCAL			LMMAL			LLMAL			LTB1			LTB2			LTB3			LTB4			LTB5			LTB6			LMFC			LLFC			LTH1			LTH2			LTH3			LTH4			LTH5			LTH6			LACR			LASH			LPSH			LUA1			LUA2			LUA3			LMEL			LLEL			LFA1			LFA3			LFA2			LWRU			LWRR			RACR			RASH			RPSH			RUA1			RUA2			RUA3			RMEL			RLEL			RFA1			RFA2			RFA3			RWRU			RWRR			LAJC			RAJC			LEJC			REJC			LHJC			RHJC			LKJC			RKJC			LSJC			RSJC			LWJC			RWJC		
		X1	Y1	Z1	X2	Y2	Z2	X3	Y3	Z3	X4	Y4	Z4	X5	Y5	Z5	X6	Y6	Z6	X7	Y7	Z7	X8	Y8	Z8	X9	Y9	Z9	X10	Y10	Z10	X11	Y11	Z11	X12	Y12	Z12	X13	Y13	Z13	X14	Y14	Z14	X15	Y15	Z15	X16	Y16	Z16	X17	Y17	Z17	X18	Y18	Z18	X19	Y19	Z19	X20	Y20	Z20	X21	Y21	Z21	X22	Y22	Z22	X23	Y23	Z23	X24	Y24	Z24	X25	Y25	Z25	X26	Y26	Z26	X27	Y27	Z27	X28	Y28	Z28	X29	Y29	Z29	X30	Y30	Z30	X31	Y31	Z31	X32	Y32	Z32	X33	Y33	Z33	X34	Y34	Z34	X35	Y35	Z35	X36	Y36	Z36	X37	Y37	Z37	X38	Y38	Z38	X39	Y39	Z39	X40	Y40	Z40	X41	Y41	Z41	X42	Y42	Z42	X43	Y43	Z43	X44	Y44	Z44	X45	Y45	Z45	X46	Y46	Z46	X47	Y47	Z47	X48	Y48	Z48	X49	Y49	Z49	X50	Y50	Z50	X51	Y51	Z51	X52	Y52	Z52	X53	Y53	Z53	X54	Y54	Z54	X55	Y55	Z55	X56	Y56	Z56	X57	Y57	Z57	X58	Y58	Z58	X59	Y59	Z59	X60	Y60	Z60	X61	Y61	Z61	X62	Y62	Z62	X63	Y63	Z63	X64	Y64	Z64	X65	Y65	Z65	X66	Y66	Z66	X67	Y67	Z67	X68	Y68	Z68	X69	Y69	Z69	X70	Y70	Z70	X71	Y71	Z71	X72	Y72	Z72	X73	Y73	Z73	X74	Y74	Z74	X75	Y75	Z75	X76	Y76	Z76	X77	Y77	Z77	X78	Y78	Z78	X79	Y79	Z79	X80	Y80	Z80	X81	Y81	Z81	X82	Y82	Z82	X83	Y83	Z83	X84	Y84	Z84	X85	Y85	Z85	X86	Y86	Z86	X87	Y87	Z87	X88	Y88	Z88	X89	Y89	Z89	X90	Y90	Z90	

211	1.750000	768.644104	1617.118286	-185.929764	775.190430	1617.948364	-291.978577	624.621521	1544.274658	-180.209930	622.015747	1545.127197	-319.450317	603.303101	1420.697266	-248.428680	603.256348	1125.905640	-251.111786	743.623657	1352.359863	-244.380051	796.364990	1145.209595	-243.353073	766.427612	941.765198	-107.237701	765.424683	947.625671	-379.056488	594.755371	972.062744	-183.800034	593.315125	983.817505	-294.632294	731.342407	719.446106	-58.426987	767.123779	652.206970	-96.919060	714.712463	591.911499	-83.323875	803.722107	728.347351	-157.016617	768.606323	673.022644	-213.360672	780.142700	597.078369	-170.333450	662.165833	447.721741	-221.858093	691.650085	451.345032	-104.808960	684.261658	332.932922	-186.102280	693.475586	269.141174	-119.861885	674.660461	202.452637	-175.480988	656.933838	350.766602	-84.548225	600.329285	286.929657	-106.002739	655.143311	221.293777	-100.909668	649.247986	107.174232	-203.884277	634.054077	87.542725	-123.164551	577.672974	67.043755	-168.887650	783.131165	48.524139	-199.722580	790.488037	57.588017	-158.606964	770.338745	47.026752	-105.744530	777.290527	55.052685	-306.588348	781.549500	57.192890	-360.129944	754.101563	38.826508	-402.349213	573.702515	63.966682	-323.388367	644.744263	98.226418	-286.844696	625.653564	94.918213	-364.296570	694.969482	371.477295	-304.084686	709.483826	305.382904	-355.503510	675.921997	241.551682	-309.949524	656.325867	315.580322	-407.727478	599.735046	254.741913	-380.240692	648.274475	186.110916	-381.648621	666.002991	437.270233	-276.097382	677.350647	451.076111	-395.693909	675.168823	736.124390	-439.011963	733.155762	677.607361	-418.523010	687.255615	607.904053	-409.889709	782.906799	810.636353	-396.253265	798.434937	742.650513	-340.832764	772.334534	672.872986	-391.165436	673.817261	1404.479858	-386.854462	752.768250	1286.018677	-395.943329	602.597900	1247.015991	-383.672882	661.840271	1292.714233	-470.952240	735.386902	1291.725952	-512.411987	742.633484	1204.025879	-533.558105	811.850708	1132.593506	-530.854065	811.570435	1167.537964	-582.379395	890.982849	1109.697998	-648.032349	933.679016	1142.160156	-617.503174	896.028687	1147.392212	-631.193298	978.309631	1067.047363	-694.040833	1014.011902	1069.190552	-642.586243	642.626648	1396.952026	-104.798149	734.312805	1288.898560	-104.467682	598.622803	1243.513428	-100.144997	634.415955	1286.041016	-27.282452	701.273621	1293.904907	25.201948	708.990540	1212.429443	56.339169	771.363770	1123.914795	58.630405	779.868286	1173.329346	112.388168	881.518005	1097.919678	179.536911	885.122742	1142.109253	156.246613	922.508301	1134.702271	136.662216	951.076599	1065.738403	208.065079	998.335449	1084.567749	162.412048	635.198914	96.572315	-325.570633	641.651031	97.358479	-163.524414	811.710571	1150.065735	-556.616730	775.616028	1148.622070	85.509287	696.992707	865.906683	-341.636318	697.708498	861.724066	-147.639410	671.676819	444.173172	-335.895645	676.907959	449.533386	-163.333527	677.683075	1266.517334	-389.808105	666.467804	1266.205994	-102.306339	996.160767	1068.118958	-668.313538	974.706024	1075.153076	185.238564	
212	1.758333	768.576599	1617.106567	-185.973801	775.184021	1617.943237	-292.015198	624.587891	1544.267700	-180.274170	622.059631	1545.132446	-319.548218	603.323975	1420.726196	-248.536484	603.256042	1125.884644	-251.192688	743.567993	1352.390137	-244.423538	796.347961	1145.184204	-243.412338	766.405273	941.780823	-107.315666	765.436584	947.613403	-379.055176	594.725403	972.072083	-183.925995	593.272339	983.797485	-294.738586	731.242432	719.469666	-58.492409	767.087708	652.203796	-96.919373	714.701477	591.937927	-83.353249	803.661377	728.348145	-157.026794	768.704895	673.027466	-213.397842	780.092651	597.073730	-170.335785	662.212585	447.730957	-221.900055	691.621704	451.341644	-104.835068	684.288757	332.937622	-186.121689	693.476196	269.138824	-119.902740	674.668274	202.477509	-175.464661	656.953491	350.775085	-84.547920	600.348389	286.931610	-106.029259	655.158936	221.297516	-100.946007	649.215210	107.171936	-203.893326	634.056091	87.551224	-123.186958	577.653198	67.055977	-168.874832	783.025696	48.469963	-199.597565	790.465576	57.577141	-158.672775	770.332520	47.044605	-105.772690	777.275452	55.031158	-306.579224	781.552673	57.210178	-360.142273	754.100403	38.834305	-402.387451	573.701050	63.958340	-323.384460	644.730103	98.210823	-286.851624	625.627625	94.923225	-364.251404	694.970276	371.468811	-304.132690	709.501709	305.384460	-355.469208	675.951965	241.558670	-309.968475	656.342773	315.567322	-407.771881	599.734192	254.721237	-380.276306	648.278870	186.061508	-381.669098	666.284912	436.984161	-276.085693	677.421082	451.089294	-395.789490	675.197144	736.103577	-439.115479	733.296387	677.514282	-418.281830	687.253723	607.921997	-409.916565	782.916748	810.620483	-396.284241	798.470825	742.623291	-340.866852	772.345276	672.877991	-391.157074	673.810425	1404.480591	-386.869476	752.783325	1285.991211	-396.009033	602.607056	1247.013428	-383.708618	661.838379	1292.721069	-470.954010	735.372498	1291.723999	-512.480042	742.636597	1204.033203	-533.613220	811.869934	1132.665283	-530.898010	811.571960	1167.526489	-582.393982	890.982727	1109.678589	-648.070618	933.712036	1142.182007	-617.596497	896.036499	1147.411499	-631.248169	978.309753	1067.058228	-694.085693	1014.035339	1069.230957	-642.661987	642.633179	1396.961304	-104.840767	734.323914	1288.868530	-104.564255	598.601440	1243.479980	-100.254517	634.329773	1286.083252	-27.185402	701.221680	1293.920532	25.142616	708.969238	1212.408813	56.246086	771.375366	1123.909790	58.563496	779.843506	1173.327881	112.295250	881.540039	1097.923340	179.470261	885.072021	1142.134033	156.205414	922.523193	1134.727783	136.590881	951.035278	1065.744507	208.010712	998.308228	1084.593018	162.364716	635.178864	96.567024	-325.551514	641.635651	97.361580	-163.540142	811.720947	1150.095886	-556.645996	775.609436	1148.618835	85.429373	697.004515	865.917567	-341.648881	697.695883	861.754766	-147.704260	671.852997	444.036728	-335.937592	676.917145	449.536301	-163.367561	677.695190	1266.502319	-389.858826	666.462677	1266.174255	-102.409386	996.172546	1068.144592	-668.373840	974.671753	1075.168762	185.187714	
213	1.766667	769.158142	1617.182495	-185.993912	775.161682	1617.954346	-292.127136	624.583435	1544.303833	-180.313049	622.051392	1545.123657	-319.581696	603.311035	1420.692383	-248.586838	603.217529	1125.904297	-251.258102	743.579163	1352.355957	-244.530350	796.309387	1145.162109	-243.468491	766.346069	941.817505	-107.328262	765.417908	947.583252	-379.106293	594.702759	972.084167	-183.930939	593.280945	983.811096	-294.805817	731.179138	719.465515	-58.525101	767.055237	652.200439	-96.947304	714.659180	591.934082	-83.356728	803.612488	728.354004	-157.038483	768.650024	673.033630	-213.390442	780.071289	597.101074	-170.332504	662.196289	447.748352	-221.927185	691.678040	451.357361	-104.860420	684.252808	332.945099	-186.131882	693.477539	269.159973	-119.881325	674.647339	202.456863	-175.449692	656.939758	350.776764	-84.566933	600.380188	286.926392	-106.029488	655.158630	221.312622	-100.944290	649.259705	107.188599	-203.896454	634.057312	87.531143	-123.176620	577.657654	67.095779	-168.859909	783.109680	48.530487	-199.739899	790.492126	57.619755	-158.621933	770.353210	47.072742	-105.776329	777.280640	55.017380	-306.593231	781.558899	57.200592	-360.143799	754.079590	38.832150	-402.312195	573.698975	63.933266	-323.486908	644.700867	98.212753	-286.901978	625.646301	94.923927	-364.326111	694.912781	371.449615	-304.158478	709.481201	305.360992	-355.552002	675.924316	241.565109	-309.969055	656.348328	315.500244	-407.793701	599.723938	254.739899	-380.338593	648.279968	186.067505	-381.662354	666.493347	436.950409	-276.255615	677.423828	451.070068	-395.826996	675.251160	736.065491	-439.170074	733.281189	677.471069	-418.280853	687.256409	607.888550	-409.939850	782.912231	810.618530	-396.320557	798.461426	742.638062	-340.865631	772.342346	672.859802	-391.206970	673.777466	1404.482910	-386.942963	752.814087	1285.982178	-396.068756	602.575867	1247.035645	-383.853302	661.863708	1292.547729	-470.993530	735.450562	1291.646851	-512.527222	742.662415	1204.034546	-533.521484	811.943359	1132.664307	-530.893677	811.579651	1167.499268	-582.452820	890.985046	1109.680420	-648.103760	933.717407	1142.284302	-617.703064	896.085266	1147.273193	-631.359070	978.341797	1067.076172	-694.114746	1014.045166	1069.234863	-642.672546	642.584045	1396.961548	-104.938011	734.276672	1288.865601	-104.598885	598.545044	1243.507813	-100.332993	634.245056	1286.085571	-27.131826	701.185730	1293.916138	25.090059	708.925781	1212.390015	56.245090	771.330627	1123.907227	58.494526	779.787720	1173.329346	112.277786	881.487488	1097.930420	179.407104	885.065857	1142.113159	156.134308	922.468079	1134.752563	136.557236	951.036133	1065.780273	207.935471	998.308105	1084.601807	162.262589	635.173584	96.568340	-325.614044	641.658508	97.359871	-163.536537	811.761505	1150.081787	-556.673248	775.559174	1148.618286	85.386156	696.978086	865.890332	-341.683756	697.640523	861.775273	-147.713625	671.958588	444.010239	-336.041306	676.937164	449.552856	-163.393803	677.694977	1266.508911	-389.961029	666.410858	1266.186707	-102.465939	996.193481	1068.155518	-668.393646	974.672119	1075.191040	185.099030	
214	1.775000	768.618713	1617.099365	-186.061768	775.155579	1617.929077	-292.137512	624.609253	1544.279907	-180.360199	622.056335	1545.130981	-319.594025	603.275940	1420.681396	-248.565979	603.123901	1126.009521	-251.069489	743.530090	1352.356445	-244.562180	796.257935	1145.174316	-243.555618	766.302490	941.802612	-107.374435	765.410706	947.588867	-379.119080	594.645264	972.112671	-183.980789	593.225098	983.810303	-294.852112	731.166565	719.507385	-58.521526	767.025024	652.212219	-96.927734	714.636169	591.944153	-83.355598	803.597473	728.359802	-157.038834	768.555908	673.015564	-213.409729	780.022705	597.089539	-170.326019	662.180664	447.723480	-221.930710	691.648682	451.349976	-104.865784	684.279602	332.939575	-186.159088	693.474426	269.184631	-119.905922	674.690979	202.457977	-175.473755	656.898743	350.785553	-84.636070	600.384827	286.949799	-106.068352	655.141846	221.311508	-100.940323	649.217896	107.169266	-203.863953	634.061096	87.470650	-123.238243	577.651794	67.069992	-168.870300	783.151367	48.531361	-199.748337	790.485596	57.630688	-158.655594	770.353333	47.070076	-105.762375	777.280945	55.026482	-306.592133	781.544800	57.236176	-360.141113	754.083008	38.847122	-402.326080	573.665405	63.921520	-323.417847	644.702759	98.217628	-286.858124	625.646790	94.888733	-364.287933	694.907715	371.431519	-304.180481	709.497559	305.383789	-355.563446	675.896362	241.545761	-310.019226	656.342285	315.481140	-407.804993	599.724670	254.722809	-380.399017	648.292358	186.051361	-381.679047	666.311340	436.956238	-276.227112	677.430908	451.044830	-395.835663	675.223816	736.076294	-439.205475	733.271973	677.491272	-418.346375	687.258667	607.863586	-409.991577	782.913330	810.609802	-396.328461	798.444031	742.628662	-340.905853	772.342773	672.837097	-391.213104	673.785706	1404.496094	-387.004089	752.858887	1285.955811	-396.104309	602.578369	1247.000244	-384.267670	661.809937	1292.703125	-471.055908	735.379150	1291.694092	-512.648254	742.660034	1204.033081	-533.527039	812.025269	1132.662231	-530.846680	811.580444	1167.494019	-582.455444	890.998108	1109.615967	-648.101624	933.727295	1142.290161	-617.721558	896.087280	1147.271606	-631.362122	978.327881	1067.028076	-694.128601	1014.072571	1069.241577	-642.684814	642.554138	1396.957764	-104.974442	734.234680	1288.884766	-104.684097	598.562256	1243.465454	-100.434303	634.218262	1286.110107	-27.221640	701.184448	1293.911011	25.050344	708.876343	1212.425415	56.125580	771.345032	1123.912231	58.410416	779.748413	1173.318604	112.188766	881.453796	1097.924561	179.314102	885.054871	1142.127563	156.076111	922.435730	1134.793213	136.503357	951.024414	1065.790894	207.847824	998.290588	1084.633545	162.199112	635.174774	96.553181	-325.573029	641.639496	97.319958	-163.551098	811.802856	1150.078125	-556.651062	775.546722	1148.615417	85.299591	696.953965	865.909369	-341.717287	697.590444	861.779636	-147.769209	671.871124	444.000534	-336.031387	676.914673	449.536728	-163.398247	677.718628	1266.478027	-390.185989	666.398468	1266.175110	-102.559200	996.200226	1068.134827	-668.406708	974.657501	1075.212219	185.023468	
